:SAMPLES-PER-SECOND 30
:FULLY-SPECIFIED
:DEGREES
486
root  47.2718 38.2883 19.7028 179.534 -15.3136 177.134
RightUpLeg  -14.8154 -10.8184 -5.6907
RightLeg  26.8125 4.47689 2.21768
RightFoot  -9.79515 -0.0518221 -1.10724
RightToes  1.33877e-009 0 -3.6325e-017
Spine  19.3279 -3.86562 10.9093
Spine1  10.7067 -2.1274 -1.41889
HEad  -26.9868 8.59425 -14.0752
LeftShoulder1  0.324711 2.44089 -24.2821
LeftArm  -16.2382 0.157163 -42.394
LeftForeArm  87.3712 -78.866 -103.683
LeftHand  -0.025192 -0.0654329 0.55935
RightShoulder  -0.325235 -4.59753 22.6578
RightArm  -16.3008 -8.58273 29.0159
RightForeArm  111.489 68.7959 147.72
RightHand  -0.376121 3.16397 -5.34017
LeftUpLeg  -19.7761 11.7022 -2.47696
LeftLeg  30.5176 -13.6242 -8.2163
LeftFoot  -9.13694 0.409866 -17.7803
LeftToes  -1.45701e-009 4.75788e-011 -4.21586e-011
487
root  46.842 38.3106 19.9187 179.243 -15.8815 176.976
RightUpLeg  -14.3063 -9.68032 -6.77828
RightLeg  26.4004 3.45174 1.62616
RightFoot  -9.39912 -0.0659293 0.148696
RightToes  1.33877e-009 0 -3.6325e-017
Spine  19.6893 -3.8742 11.0192
Spine1  10.5343 -2.27069 -0.662894
HEad  -26.1177 8.72624 -13.5502
LeftShoulder1  0.313077 2.48884 -24.5961
LeftArm  -16.1432 0.275134 -42.7023
LeftForeArm  84.9346 -78.9655 -101.239
LeftHand  -0.0459538 0.498293 1.03313
RightShoulder  -0.269022 -4.42073 22.1301
RightArm  -16.5633 -7.56984 29.6244
RightForeArm  111.038 69.3575 146.726
RightHand  -0.383648 2.85978 -5.61782
LeftUpLeg  -20.6284 11.4334 -1.28195
LeftLeg  33.6133 -16.6791 -11.2641
LeftFoot  -9.62458 0.349056 -19.3971
LeftToes  -1.45701e-009 4.75788e-011 -4.21586e-011
488
root  46.3763 38.3856 20.116 179.471 -16.8149 176.327
RightUpLeg  -13.8111 -9.7209 -8.37889
RightLeg  25.4882 2.91831 1.28005
RightFoot  -8.85262 -0.0819014 0.998213
RightToes  1.33877e-009 0 -3.6325e-017
Spine  19.6618 -3.97842 10.7788
Spine1  10.0092 -2.52038 -0.274605
HEad  -24.9266 8.6728 -13.3154
LeftShoulder1  0.35498 2.3377 -24.16
LeftArm  -16.5905 0.358078 -43.4033
LeftForeArm  81.0827 -79.1156 -96.9413
LeftHand  -0.0445589 0.686542 1.02016
RightShoulder  -0.280164 -4.4599 22.1245
RightArm  -16.537 -7.36198 29.873
RightForeArm  111.193 69.394 146.677
RightHand  -0.394516 2.92855 -5.72871
LeftUpLeg  -21.2663 10.1282 -0.0200119
LeftLeg  34.5461 -14.6888 -10.3153
LeftFoot  -10.4239 0.215965 -19.2375
LeftToes  -1.45701e-009 4.75788e-011 -4.21586e-011
489
root  45.8436 38.5566 20.3008 -179.967 -17.182 175.489
RightUpLeg  -13.2021 -10.1388 -10.2291
RightLeg  23.6505 3.35744 1.35327
RightFoot  -7.68354 -0.109928 1.7969
RightToes  1.33877e-009 0 -3.6325e-017
Spine  19.2144 -4.02147 10.4684
Spine1  9.77977 -2.52274 -0.734186
HEad  -24.4541 8.94147 -13.5346
LeftShoulder1  0.359903 2.32981 -24.3729
LeftArm  -17.1752 0.678089 -43.4602
LeftForeArm  80.5049 -79.1419 -96.124
LeftHand  -0.0486098 0.613172 1.11017
RightShoulder  -0.293585 -4.50173 22.1659
RightArm  -16.1524 -7.46418 30.3445
RightForeArm  111.72 69.2605 146.966
RightHand  -0.376965 2.8696 -5.52158
LeftUpLeg  -21.6465 8.96317 1.54442
LeftLeg  33.8125 -11.545 -7.88368
LeftFoot  -10.0929 0.218919 -14.4227
LeftToes  -1.45701e-009 4.75788e-011 -4.21586e-011
490
root  45.3186 38.6475 20.4738 -179.95 -16.869 175.267
RightUpLeg  -12.4442 -10.1544 -11.3975
RightLeg  22.03 4.15513 1.47837
RightFoot  -6.85048 -0.167484 3.08624
RightToes  1.33877e-009 0 -3.6325e-017
Spine  19.262 -3.69839 10.1303
Spine1  9.62697 -2.2135 -0.666829
HEad  -24.3969 8.65971 -13.5412
LeftShoulder1  0.4246 2.12833 -24.6239
LeftArm  -17.8354 1.23839 -43.0881
LeftForeArm  82.4679 -79.0876 -98.2291
LeftHand  -0.048543 0.329025 1.08262
RightShoulder  -0.464632 -5.06159 22.9825
RightArm  -15.3404 -6.78712 30.3855
RightForeArm  112.107 69.1118 147.262
RightHand  -0.428232 2.90403 -6.21415
LeftUpLeg  -21.2613 8.32595 4.26721
LeftLeg  32.3885 -9.66259 -6.21338
LeftFoot  -10.1214 0.186438 -11.7918
LeftToes  -1.45701e-009 4.75788e-011 -4.21586e-011
491
root  44.7337 38.6677 20.6413 179.932 -16.8618 174.954
RightUpLeg  -11.7285 -10.4472 -12.7915
RightLeg  21.0348 4.85672 1.56428
RightFoot  -6.27787 -0.229369 4.22253
RightToes  1.33877e-009 0 -3.6325e-017
Spine  19.0817 -3.61872 9.43742
Spine1  9.94203 -2.25465 -0.547501
HEad  -24.3213 8.94909 -13.5636
LeftShoulder1  0.420069 2.12097 -24.0974
LeftArm  -18.726 1.19772 -42.9498
LeftForeArm  83.7568 -79.1039 -98.7888
LeftHand  -0.0120458 0.318095 0.247508
RightShoulder  -0.42056 -4.91719 22.8323
RightArm  -15.0046 -6.6555 31.1052
RightForeArm  112.258 69.1697 147.181
RightHand  -0.449218 3.24473 -6.26346
LeftUpLeg  -20.5472 7.12665 7.0242
LeftLeg  30.3728 -8.95953 -5.30161
LeftFoot  -10.1396 0.171085 -10.5265
LeftToes  -1.45701e-009 4.75788e-011 -4.21586e-011
492
root  44.0811 38.6222 20.7835 179.859 -17.1257 174.668
RightUpLeg  -11.1887 -10.656 -14.3196
RightLeg  20.5972 5.14407 1.6217
RightFoot  -6.05702 -0.287504 5.33903
RightToes  1.33877e-009 0 -3.6325e-017
Spine  19.0412 -3.8218 8.77429
Spine1  9.59491 -2.54072 -0.652096
HEad  -23.7472 9.68252 -13.2335
LeftShoulder1  0.380719 2.25086 -24.1065
LeftArm  -18.7419 1.14688 -41.9697
LeftForeArm  83.2291 -79.0448 -99.2743
LeftHand  -0.0432304 0.490506 0.949907
RightShoulder  -0.397699 -4.83889 22.8368
RightArm  -14.4263 -6.65411 31.732
RightForeArm  113.068 69.2584 147.12
RightHand  -0.377595 2.69171 -5.63992
LeftUpLeg  -19.6902 5.15355 9.72653
LeftLeg  27.7841 -8.7571 -4.64645
LeftFoot  -10.0472 0.170527 -9.741
LeftToes  -1.45701e-009 4.75788e-011 -4.21586e-011
493
root  43.391 38.4933 20.9417 179.466 -16.8809 174.615
RightUpLeg  -10.9353 -9.16963 -15.6763
RightLeg  20.9057 4.43296 1.43985
RightFoot  -6.16376 -0.343908 6.67146
RightToes  1.33877e-009 0 -3.6325e-017
Spine  19.0753 -3.7313 8.19194
Spine1  9.63059 -2.46658 -0.814156
HEad  -23.2202 10.2634 -13.1755
LeftShoulder1  0.401139 2.18405 -24.1172
LeftArm  -18.7734 0.79298 -40.7773
LeftForeArm  81.0857 -79.0439 -97.9871
LeftHand  -0.0689564 0.156266 1.5067
RightShoulder  -0.38931 -4.81128 22.7993
RightArm  -14.0193 -6.58969 32.3954
RightForeArm  113.065 69.234 147.16
RightHand  -0.4045 3.17899 -5.70424
LeftUpLeg  -18.5248 3.13425 12.6376
LeftLeg  25.2276 -8.30096 -3.92455
LeftFoot  -9.9971 0.158075 -8.39486
LeftToes  -1.45701e-009 4.75788e-011 -4.21586e-011
